<svg id="svg8" viewBox="0 0 16.933333 16.933334" xmlns="http://www.w3.org/2000/svg" xmlns:svg="http://www.w3.org/2000/svg"><g id="layer6" transform="scale(.265)"><path id="path4948" d="m32 5.0859375-27.0019531 11.5742185v3.337891h54.0058591v-3.337891zm0 2.9160156c2.749579 0 4.998047 2.2484679 4.998047 4.9980469-.000001 2.749579-2.248468 4.996094-4.998047 4.996094s-4.996093-2.246515-4.996094-4.996094c.000001-2.749579 2.246515-4.9980469 4.996094-4.9980469z" font-variant-ligatures="normal" font-variant-position="normal" font-variant-caps="normal" font-variant-numeric="normal" font-variant-alternates="normal" font-feature-settings="normal" text-indent="0" text-align="start" text-decoration-line="none" text-decoration-style="solid" text-decoration-color="rgb(0,0,0)" text-transform="none" text-orientation="mixed" white-space="normal" shape-padding="0" isolation="auto" mix-blend-mode="normal" solid-color="rgb(0,0,0)" solid-opacity="1" vector-effect="none" fill="#000000" style="fill: rgb(46, 125, 50);"></path><path id="path4944" d="m32 10.001953c1.668699 0 2.998047 1.329348 2.998047 2.998047s-1.329348 2.996094-2.998047 2.996094-2.996093-1.327395-2.996094-2.996094c0-1.668699 1.327395-2.998047 2.996094-2.998047z" font-variant-ligatures="normal" font-variant-position="normal" font-variant-caps="normal" font-variant-numeric="normal" font-variant-alternates="normal" font-feature-settings="normal" text-indent="0" text-align="start" text-decoration-line="none" text-decoration-style="solid" text-decoration-color="rgb(0,0,0)" text-transform="none" text-orientation="mixed" white-space="normal" shape-padding="0" isolation="auto" mix-blend-mode="normal" solid-color="rgb(0,0,0)" solid-opacity="1" vector-effect="none" fill="#000000" style="fill: rgb(46, 125, 50);"></path><path id="path4942" d="m7 21.998047h12.003906v2c0 .506511-.189704.72668-.451172.857422-.261505.130741-.552734.146484-.552734.146484h-10.0039062s-.2834504-.01574-.5449219-.146484c-.2614866-.130742-.4511719-.323339-.4511719-.857422z" font-variant-ligatures="normal" font-variant-position="normal" font-variant-caps="normal" font-variant-numeric="normal" font-variant-alternates="normal" font-feature-settings="normal" text-indent="0" text-align="start" text-decoration-line="none" text-decoration-style="solid" text-decoration-color="rgb(0,0,0)" text-transform="none" text-orientation="mixed" white-space="normal" shape-padding="0" isolation="auto" mix-blend-mode="normal" solid-color="rgb(0,0,0)" solid-opacity="1" vector-effect="none" fill="#000000" style="fill: rgb(46, 125, 50);"></path><path id="path4938" d="m26 21.998047h12.003906v2c0 .506511-.189704.72668-.451172.857422-.261505.130741-.552734.146484-.552734.146484h-10.003906s-.283451-.01574-.544922-.146484c-.261487-.130742-.451172-.323339-.451172-.857422z" font-variant-ligatures="normal" font-variant-position="normal" font-variant-caps="normal" font-variant-numeric="normal" font-variant-alternates="normal" font-feature-settings="normal" text-indent="0" text-align="start" text-decoration-line="none" text-decoration-style="solid" text-decoration-color="rgb(0,0,0)" text-transform="none" text-orientation="mixed" white-space="normal" shape-padding="0" isolation="auto" mix-blend-mode="normal" solid-color="rgb(0,0,0)" solid-opacity="1" vector-effect="none" fill="#000000" style="fill: rgb(46, 125, 50);"></path><path id="path4934" d="m45 21.998047h12.003906v2c0 .506511-.189704.72668-.451172.857422-.261505.130741-.554687.146484-.554687.146484h-10.001953s-.283451-.01574-.544922-.146484c-.261487-.130742-.451172-.323338-.451172-.857422z" font-variant-ligatures="normal" font-variant-position="normal" font-variant-caps="normal" font-variant-numeric="normal" font-variant-alternates="normal" font-feature-settings="normal" text-indent="0" text-align="start" text-decoration-line="none" text-decoration-style="solid" text-decoration-color="rgb(0,0,0)" text-transform="none" text-orientation="mixed" white-space="normal" shape-padding="0" isolation="auto" mix-blend-mode="normal" solid-color="rgb(0,0,0)" solid-opacity="1" vector-effect="none" fill="#000000" style="fill: rgb(46, 125, 50);"></path><path id="path4932" d="m10.001953 27.003906h5.994141v19.998047h-5.994141z" font-variant-ligatures="normal" font-variant-position="normal" font-variant-caps="normal" font-variant-numeric="normal" font-variant-alternates="normal" font-feature-settings="normal" text-indent="0" text-align="start" text-decoration-line="none" text-decoration-style="solid" text-decoration-color="rgb(0,0,0)" text-transform="none" text-orientation="mixed" white-space="normal" shape-padding="0" isolation="auto" mix-blend-mode="normal" solid-color="rgb(0,0,0)" solid-opacity="1" vector-effect="none" fill="#000000" style="fill: rgb(46, 125, 50);"></path><path id="path4930" d="m29.003906 27.003906h5.994141v19.998047h-5.994141z" font-variant-ligatures="normal" font-variant-position="normal" font-variant-caps="normal" font-variant-numeric="normal" font-variant-alternates="normal" font-feature-settings="normal" text-indent="0" text-align="start" text-decoration-line="none" text-decoration-style="solid" text-decoration-color="rgb(0,0,0)" text-transform="none" text-orientation="mixed" white-space="normal" shape-padding="0" isolation="auto" mix-blend-mode="normal" solid-color="rgb(0,0,0)" solid-opacity="1" vector-effect="none" fill="#000000" style="fill: rgb(46, 125, 50);"></path><path id="path4928" d="m47.996094 27.003906h6.001953v19.998047h-6.001953z" font-variant-ligatures="normal" font-variant-position="normal" font-variant-caps="normal" font-variant-numeric="normal" font-variant-alternates="normal" font-feature-settings="normal" text-indent="0" text-align="start" text-decoration-line="none" text-decoration-style="solid" text-decoration-color="rgb(0,0,0)" text-transform="none" text-orientation="mixed" white-space="normal" shape-padding="0" isolation="auto" mix-blend-mode="normal" solid-color="rgb(0,0,0)" solid-opacity="1" vector-effect="none" fill="#000000" style="fill: rgb(46, 125, 50);"></path><path id="path4926" d="m7.9960938 49.001953h10.0039062s.291229.0177.552734.148438c.261468.130741.451172.348959.451172.855468v1.992188h-12.003906v-1.992188c0-.534096.1896853-.724735.4511719-.855468.2614715-.130621.5449219-.148438.5449219-.148438z" font-variant-ligatures="normal" font-variant-position="normal" font-variant-caps="normal" font-variant-numeric="normal" font-variant-alternates="normal" font-feature-settings="normal" text-indent="0" text-align="start" text-decoration-line="none" text-decoration-style="solid" text-decoration-color="rgb(0,0,0)" text-transform="none" text-orientation="mixed" white-space="normal" shape-padding="0" isolation="auto" mix-blend-mode="normal" solid-color="rgb(0,0,0)" solid-opacity="1" vector-effect="none" fill="#000000" style="fill: rgb(46, 125, 50);"></path><path id="path4924" d="m26.996094 49.001953h10.003906s.291229.0177.552734.148438c.261468.130741.451172.348959.451172.855468v1.992188h-12.003906v-1.992188c0-.534096.189685-.724735.451172-.855468.261471-.130621.544922-.148438.544922-.148438z" font-variant-ligatures="normal" font-variant-position="normal" font-variant-caps="normal" font-variant-numeric="normal" font-variant-alternates="normal" font-feature-settings="normal" text-indent="0" text-align="start" text-decoration-line="none" text-decoration-style="solid" text-decoration-color="rgb(0,0,0)" text-transform="none" text-orientation="mixed" white-space="normal" shape-padding="0" isolation="auto" mix-blend-mode="normal" solid-color="rgb(0,0,0)" solid-opacity="1" vector-effect="none" fill="#000000" style="fill: rgb(46, 125, 50);"></path><path id="path4922" d="m45.996094 49.001953h10.001953s.293182.0177.554687.148438c.261468.130741.451172.348959.451172.855468v1.992188h-12.003906v-1.992188c0-.534096.189666-.724735.451172-.855468.261471-.130621.544922-.148438.544922-.148438z" font-variant-ligatures="normal" font-variant-position="normal" font-variant-caps="normal" font-variant-numeric="normal" font-variant-alternates="normal" font-feature-settings="normal" text-indent="0" text-align="start" text-decoration-line="none" text-decoration-style="solid" text-decoration-color="rgb(0,0,0)" text-transform="none" text-orientation="mixed" white-space="normal" shape-padding="0" isolation="auto" mix-blend-mode="normal" solid-color="rgb(0,0,0)" solid-opacity="1" vector-effect="none" fill="#000000" style="fill: rgb(46, 125, 50);"></path><path id="path3862" d="m6.0019531 53.998047h51.9980469s.291248.01782.552734.148437c.261468.130734.451172.345036.451172.855469v4.001953h-54.0058591v-4.001953c0-.511982.1877336-.724727.4492187-.855469.2614866-.130733.5546875-.148437.5546875-.148437z" font-variant-ligatures="normal" font-variant-position="normal" font-variant-caps="normal" font-variant-numeric="normal" font-variant-alternates="normal" font-feature-settings="normal" text-indent="0" text-align="start" text-decoration-line="none" text-decoration-style="solid" text-decoration-color="rgb(0,0,0)" text-transform="none" text-orientation="mixed" white-space="normal" shape-padding="0" isolation="auto" mix-blend-mode="normal" solid-color="rgb(0,0,0)" solid-opacity="1" vector-effect="none" fill="#000000" style="fill: rgb(46, 125, 50);"></path></g></svg>