<!-- icon666.com - MILLIONS OF FREE VECTOR ICONS --><svg version="1.1" id="Layer_1" xmlns="http://www.w3.org/2000/svg" xmlns:xlink="http://www.w3.org/1999/xlink" x="0px" y="0px" viewBox="0 0 512 512" style="enable-background:new 0 0 512 512;" xml:space="preserve"><g><g><path d="M256,0c-35.841,0-65,29.159-65,65c0,7.717,1.338,15.216,3.914,22.275C213.137,77.533,233.933,72,256,72 s42.863,5.533,61.086,15.275C319.662,80.216,321,72.718,321,65C321,29.159,291.841,0,256,0z" fill="#000000" style="fill: rgb(46, 125, 50);"></path></g></g><g><g><path d="M176.088,141.879C163.478,158.614,156,179.433,156,202v20c0,55.229,44.771,100,100,100s100-44.771,100-100v-5 C289.709,217,224.197,189.627,176.088,141.879z" fill="#000000" style="fill: rgb(46, 125, 50);"></path></g></g><g><g><path d="M256,102c-21.836,0-42.034,7.004-58.48,18.88c42.23,41.76,99.445,65.798,157.358,66.105 C347.634,138.88,306.125,102,256,102z" fill="#000000" style="fill: rgb(46, 125, 50);"></path></g></g><g><g><path d="M311,352h-40v160h175v-25C446,412.561,385.439,352,311,352z M371,452h-55v-30h55V452z" fill="#000000" style="fill: rgb(46, 125, 50);"></path></g></g><g><g><path d="M201,352c-74.439,0-135,60.561-135,135v25h175V352H201z" fill="#000000" style="fill: rgb(46, 125, 50);"></path></g></g></svg>