<!-- icon666.com - MILLIONS OF FREE VECTOR ICONS --><svg version="1.1" id="Layer_1" xmlns="http://www.w3.org/2000/svg" xmlns:xlink="http://www.w3.org/1999/xlink" x="0px" y="0px" viewBox="0 0 491.526 491.526" style="enable-background:new 0 0 491.526 491.526;" xml:space="preserve"><g><g><g><path d="M163.84,102.403c0-56.463-36.741-102.4-81.92-102.4C36.741,0.003,0,45.94,0,102.403c0,47.575,26.194,87.306,61.44,98.775 v27.013C26.194,237.346,0,269.151,0,307.203v102.4c0,45.179,36.741,81.92,81.92,81.92c45.179,0,81.92-36.741,81.92-81.92v-102.4 c0-38.052-26.194-69.857-61.44-79.012v-27.013C137.646,189.709,163.84,149.978,163.84,102.403z M81.92,163.843 c-22.2,0-40.96-28.14-40.96-61.44s18.76-61.44,40.96-61.44c22.2,0,40.96,28.14,40.96,61.44S104.12,163.843,81.92,163.843z" fill="#000000" style="fill: rgb(46, 125, 50);"></path><path d="M450.566,164.804V121.57c0-21.852-17.797-39.649-39.67-39.649H285.415c-21.852,0-39.649,17.797-39.649,39.649v43.233 c-23.306,4.485-40.96,24.965-40.96,49.562v226.632c0,27.873,22.651,50.524,50.524,50.524h185.672 c27.853,0,50.524-22.651,50.524-50.524V214.365C491.526,189.769,473.852,169.289,450.566,164.804z M409.606,121.57v42.271 H286.276l-0.86-40.96L409.606,121.57z M391.563,387.421l-43.397-22.815l-43.418,22.815l8.294-48.333l-35.103-34.222l48.517-7.045 l21.709-43.991l21.688,43.991l48.538,7.045l-35.123,34.222L391.563,387.421z" fill="#000000" style="fill: rgb(46, 125, 50);"></path></g></g></g></svg>